<svg width="161" height="148" viewBox="0 0 161 148" fill="none" xmlns="http://www.w3.org/2000/svg">
<circle cx="88.5749" cy="78.0446" r="69.5349" fill="#91C788"/>
<path d="M104.684 72.2985C106.391 72.2985 107.848 71.6957 109.053 70.4901C110.259 69.2845 110.862 67.8282 110.862 66.1211C110.862 64.4141 110.259 62.9578 109.053 61.7521C107.848 60.5466 106.391 59.9438 104.684 59.9438C102.977 59.9438 101.525 60.5435 100.329 61.7428C99.1321 62.9421 98.5337 64.3984 98.5337 66.1118C98.5337 67.825 99.1317 69.2845 100.328 70.4901C101.524 71.6957 102.976 72.2985 104.684 72.2985ZM72.4654 72.2985C74.1724 72.2985 75.6243 71.6988 76.821 70.4995C78.0177 69.3002 78.616 67.8438 78.616 66.1305C78.616 64.4172 78.0181 62.9578 76.8221 61.7521C75.6262 60.5466 74.1739 59.9438 72.4654 59.9438C70.7584 59.9438 69.3021 60.5466 68.0964 61.7521C66.8908 62.9578 66.2881 64.4141 66.2881 66.1211C66.2881 67.8282 66.8908 69.2845 68.0964 70.4901C69.3021 71.6957 70.7584 72.2985 72.4654 72.2985ZM88.5749 102.449C93.478 102.449 97.9911 101.13 102.114 98.4927C104.965 96.6691 107.275 94.3925 109.042 91.6631C110.191 89.8893 108.768 87.7394 106.655 87.7394C105.596 87.7394 104.632 88.3152 104.017 89.1779C102.456 91.3692 100.468 93.103 98.0536 94.3794C95.1334 95.9233 91.9915 96.6953 88.6277 96.6953C85.264 96.6953 82.1089 95.9419 79.1624 94.4351C76.7423 93.1975 74.7768 91.4708 73.2659 89.255C72.65 88.3518 71.663 87.7394 70.5698 87.7394C68.4353 87.7394 67.0115 89.9245 68.1883 91.7053C69.9796 94.416 72.2806 96.6785 75.0914 98.4927C79.1773 101.13 83.6718 102.449 88.5749 102.449ZM88.5763 123.284C82.3205 123.284 76.441 122.101 70.938 119.734C65.4349 117.368 60.6421 114.143 56.5594 110.06C52.4767 105.977 49.2519 101.185 46.8852 95.6829C44.5184 90.1808 43.3351 84.3019 43.3351 78.046C43.3351 71.7902 44.5184 65.9108 46.8852 60.4077C49.2519 54.9046 52.4753 50.1113 56.5552 46.0277C60.6351 41.9441 65.4267 38.7149 70.9302 36.3401C76.4335 33.9654 82.3139 32.778 88.5712 32.778C94.8285 32.778 100.71 33.9647 106.215 36.3381C111.72 38.7115 116.514 41.9387 120.596 46.02C124.678 50.1013 127.907 54.8946 130.28 60.3998C132.654 65.9051 133.841 71.7874 133.841 78.0468C133.841 84.3051 132.654 90.1856 130.279 95.6884C127.905 101.191 124.675 105.983 120.592 110.063C116.508 114.144 111.715 117.368 106.213 119.734C100.711 122.101 94.8322 123.284 88.5763 123.284ZM88.5749 115.692C99.0807 115.692 107.982 112.044 115.278 104.748C122.574 97.4515 126.223 88.5504 126.223 78.0446C126.223 67.5387 122.574 58.6376 115.278 51.3413C107.982 44.045 99.0807 40.3968 88.5749 40.3968C78.069 40.3968 69.1679 44.045 61.8716 51.3413C54.5753 58.6376 50.9271 67.5387 50.9271 78.0446C50.9271 88.5504 54.5753 97.4515 61.8716 104.748C69.1679 112.044 78.069 115.692 88.5749 115.692Z" fill="white"/>
<path d="M105.4 4.92321C106.936 2.49327 115.091 -1.0686 118.32 3.35908C122.203 8.6841 122.857 8.63112 128.761 5.54331C129.224 5.30086 129.769 5.22793 130.269 5.38055C136.862 7.3914 132.277 11.6654 135.58 17.2851C135.768 17.6037 136.051 17.8615 136.394 17.9995C141.668 20.1208 145.62 13.0739 151.246 16.8792C151.716 17.1971 152 17.7298 151.958 18.2956C151.644 22.533 147.55 31.1748 153.985 31.9601C160.908 32.805 159.314 44.5129 156.618 44.9278" stroke="#91C788" stroke-width="2.13953" stroke-linecap="round"/>
<path d="M11.6143 80.1655C8.94486 81.2328 3.95504 88.6009 7.71936 92.5833C12.2466 97.3727 12.0752 98.0061 7.96211 103.248C7.63916 103.659 7.46812 104.181 7.5269 104.701C8.30124 111.55 13.34 107.822 18.2627 112.095C18.5419 112.337 18.7437 112.663 18.8167 113.025C19.9403 118.597 12.2907 121.197 15.0057 127.423C15.2325 127.943 15.7043 128.32 16.2684 128.382C20.4919 128.846 29.7356 126.398 29.3338 132.868C28.9015 139.829 40.7038 140.397 41.6035 137.822" stroke="#91C788" stroke-width="2.13953" stroke-linecap="round"/>
</svg>
