<svg width="40" height="28" viewBox="0 0 40 28" fill="none" xmlns="http://www.w3.org/2000/svg">
<path d="M39.0572 16.917C39.0572 28.5627 0.942139 28.5627 0.942139 16.917C0.942139 8.45469 9.47445 1.59465 19.9997 1.59465C30.5249 1.59465 39.0572 8.45469 39.0572 16.917Z" fill="#D7A251"/>
<path d="M32.5748 3.95316C32.2171 3.72032 31.7199 3.81449 31.5085 4.18479C29.243 8.1526 25.7095 15.5619 22.5713 15.04C20.5008 14.6956 23.9528 4.95316 25.178 1.83767C25.3532 1.3922 25.0808 0.895939 24.6096 0.806603C23.2489 0.548414 21.8347 0.401855 20.3825 0.379883C20.1396 0.517106 19.9469 0.625838 19.7039 0.763061C17.0098 5.41175 12.1933 14.77 9.45787 13.7773C8.19251 13.3182 9.42237 6.93417 10.5918 3.70085C10.8263 3.05248 10.1495 2.44805 9.53062 2.75429C3.81264 5.58423 0 10.6623 0 16.4568C0 31.7994 40.1708 30.881 39.9994 16.4568C39.9395 11.4072 37.1037 6.90109 32.5748 3.95316Z" fill="#E0B87A"/>
<path d="M21.3903 0.805661C21.8614 0.895077 22.1339 1.39125 21.9587 1.83673C20.7335 4.95222 20.4418 9.98482 20.7779 11.6659C21.0999 13.2756 21.9379 13.9592 21.9379 13.9592C21.7172 11.2733 24.1825 4.36783 25.1779 1.83665C25.3531 1.39117 25.0807 0.894916 24.6095 0.80558C23.2488 0.547391 21.8346 0.400832 20.3825 0.37886C20.2503 0.453468 20.133 0.519705 20.0144 0.586667C20.4785 0.647431 20.9375 0.719786 21.3903 0.805661Z" fill="#E0B87A"/>
<path d="M8.93945 12.5001C8.79313 10.3712 9.70943 6.13928 10.5917 3.7C10.8262 3.05163 10.1494 2.4472 9.53052 2.75344C8.72842 3.15038 7.96392 3.59159 7.24215 4.0728C6.3446 9.5198 8.75909 12.4709 8.93945 12.5001Z" fill="#E0B87A"/>
<path d="M32.5747 3.95222C32.2169 3.71939 31.7198 3.81355 31.5084 4.18385C31.3381 4.48212 31.1605 4.80011 30.9766 5.13234C34.5516 8.0385 36.7276 12.0393 36.7801 16.4558C36.8625 23.3921 27.6157 27.2046 17.9933 27.5882C28.6578 28.016 40.091 24.1654 39.9994 16.4558C39.9394 11.4063 37.1035 6.90015 32.5747 3.95222Z" fill="#E0B87A"/>
</svg>
