<svg width="64" height="64" viewBox="0 0 64 64" fill="none" xmlns="http://www.w3.org/2000/svg">
<path d="M45.0913 29.4651C41.7335 29.4651 41.7335 32.1696 38.3758 32.1696C35.0183 32.1696 35.0183 29.4651 31.6608 29.4651C28.3032 29.4651 28.3032 32.1696 24.9457 32.1696C21.5879 32.1696 21.5879 29.4651 18.2302 29.4651C14.8725 29.4651 14.8725 32.1696 11.5149 32.1696C8.68729 32.1696 8.23992 30.2526 6.16442 29.647C5.54029 29.4649 4.94417 30.0036 5.07842 30.6397L10.8679 58.0851C11.5952 61.5326 14.6373 64 18.1607 64H45.1598C48.6833 64 51.7254 61.5327 52.4525 58.0851L58.2423 30.6387C58.3729 30.0197 57.8044 29.4645 57.1956 29.6356C55.0864 30.2284 54.6514 32.1695 51.8064 32.1695C48.4489 32.1696 48.4489 29.4651 45.0913 29.4651Z" fill="#A3A0CA"/>
<path d="M35.3129 42.6869C33.8294 42.6869 32.5088 43.3837 31.6603 44.468C30.8118 43.3837 29.4912 42.6869 28.0077 42.6869C25.4476 42.6869 23.3721 44.7622 23.3721 47.3225C23.3721 53.1466 31.6603 56.3899 31.6603 56.3899C31.6603 56.3899 39.9486 53.1466 39.9486 47.3225C39.9486 44.7622 37.8731 42.6869 35.3129 42.6869Z" fill="#EFEFF6"/>
<path d="M57.1956 29.6357C55.0865 30.2285 54.6515 32.1696 51.8065 32.1696C51.5246 32.1696 51.2682 32.1491 51.0297 32.1142L50.8386 33.0204C50.655 33.0071 50.4649 32.9991 50.2649 32.9991C45.6137 32.9991 45.6137 36.7454 40.9627 36.7454C36.3119 36.7454 36.3118 32.9991 31.6611 32.9991C27.0102 32.9991 27.0102 36.7454 22.3594 36.7454C17.7082 36.7454 17.7082 32.9991 13.0571 32.9991C9.43897 32.9991 8.63485 35.2657 6.26672 36.2726L6.80335 38.8164C8.78035 37.7256 9.7261 35.8044 13.0571 35.8044C17.7082 35.8044 17.7082 39.5506 22.3594 39.5506C27.0102 39.5506 27.0102 35.8044 31.6611 35.8044C36.312 35.8044 36.312 39.5506 40.9627 39.5506C45.6091 39.5506 45.6142 35.8122 50.2514 35.8047L45.5514 58.0853C44.824 61.5328 41.7819 64 38.2584 64H45.1597C48.6832 64 51.7254 61.5328 52.4526 58.0851L58.2424 30.6387C58.373 30.0199 57.8046 29.4645 57.1956 29.6357Z" fill="#A3A0CA"/>
<path d="M3.755 36.7453C8.406 36.7453 8.406 32.999 13.0569 32.999C17.708 32.999 17.708 36.7453 22.3591 36.7453C27.01 36.7453 27.01 32.999 31.6609 32.999C36.3118 32.999 36.3118 36.7453 40.9625 36.7453C45.6136 36.7453 45.6136 32.999 50.2646 32.999C54.9155 32.999 54.9155 36.7453 59.5664 36.7453C59.5751 36.7453 59.5838 36.7453 59.5925 36.7453C60.8958 36.7413 62.0378 35.8835 62.4509 34.6476C63.0145 32.9619 63.3203 31.1581 63.3203 29.2828C63.3203 21.7096 58.3444 15.2991 51.4838 13.1411C48.2183 5.41863 40.5723 0 31.6603 0C22.7483 0 15.1021 5.41863 11.8365 13.141C4.97588 15.2991 0 21.7095 0 29.2828C0 31.1894 0.316 33.0219 0.897625 34.7318C1.305 35.9293 2.43738 36.7374 3.70225 36.7453C3.71975 36.7453 3.73738 36.7453 3.755 36.7453Z" fill="#FFC0B8"/>
<path d="M51.484 13.141C48.2183 5.41863 40.5723 0 31.6603 0C30.4883 0 29.3385 0.094625 28.2175 0.275C35.6215 1.46588 41.7623 6.43425 44.5984 13.1411C51.459 15.2993 56.4349 21.7096 56.4349 29.2828C56.4349 31.1581 56.1292 32.9619 55.5655 34.6476C55.5012 34.8401 55.4173 35.0221 55.3197 35.1945C56.362 36.0121 57.5092 36.7454 59.5665 36.7454C59.5753 36.7454 59.5839 36.7454 59.5927 36.7454C60.8959 36.7414 62.0379 35.8836 62.451 34.6478C63.0147 32.962 63.3204 31.1583 63.3204 29.2829C63.3207 21.7096 58.3445 15.2991 51.484 13.141Z" fill="#FFC0B8"/>
<path d="M39.3966 16.1951C41.0218 16.1951 42.3392 14.8777 42.3392 13.2525C42.3392 11.6273 41.0218 10.3099 39.3966 10.3099C37.7714 10.3099 36.454 11.6273 36.454 13.2525C36.454 14.8777 37.7714 16.1951 39.3966 16.1951Z" fill="#A3A0CA"/>
<path d="M21.7152 13.2514C23.3404 13.2514 24.6578 11.9339 24.6578 10.3087C24.6578 8.68358 23.3404 7.36612 21.7152 7.36612C20.09 7.36612 18.7726 8.68358 18.7726 10.3087C18.7726 11.9339 20.09 13.2514 21.7152 13.2514Z" fill="#2FC9EF"/>
<path d="M10.1252 29.4651C11.7504 29.4651 13.0679 28.1477 13.0679 26.5225C13.0679 24.8973 11.7504 23.5799 10.1252 23.5799C8.50008 23.5799 7.18262 24.8973 7.18262 26.5225C7.18262 28.1477 8.50008 29.4651 10.1252 29.4651Z" fill="#FFD885"/>
<path d="M29.8752 26.5226C31.5004 26.5226 32.8179 25.2052 32.8179 23.58C32.8179 21.9548 31.5004 20.6374 29.8752 20.6374C28.2501 20.6374 26.9326 21.9548 26.9326 23.58C26.9326 25.2052 28.2501 26.5226 29.8752 26.5226Z" fill="#FF6752"/>
<path d="M51.8066 30.0939C53.4318 30.0939 54.7493 28.7764 54.7493 27.1512C54.7493 25.5261 53.4318 24.2086 51.8066 24.2086C50.1815 24.2086 48.864 25.5261 48.864 27.1512C48.864 28.7764 50.1815 30.0939 51.8066 30.0939Z" fill="#91C788"/>
<path d="M39.9485 47.3224C39.9485 44.7623 37.8732 42.6868 35.3129 42.6868C33.8294 42.6868 32.5088 43.3836 31.6603 44.4679V56.3896C31.6603 56.3899 39.9485 53.1466 39.9485 47.3224Z" fill="#EFEFF6"/>
<path d="M24.6572 10.3093C24.6572 8.68414 23.3397 7.36664 21.7146 7.36664V13.2519C23.3397 13.2519 24.6572 11.9344 24.6572 10.3093Z" fill="#2FC9EF"/>
<path d="M32.8177 23.58C32.8177 21.9549 31.5002 20.6374 29.8751 20.6374V26.5226C31.5002 26.5225 32.8177 25.2051 32.8177 23.58Z" fill="#FF6752"/>
<path d="M54.7496 27.1509C54.7496 25.5258 53.4321 24.2083 51.807 24.2083V30.0935C53.4321 30.0935 54.7496 28.776 54.7496 27.1509Z" fill="#91C788"/>
<path d="M42.3387 13.2519C42.3387 11.6268 41.0212 10.3093 39.3961 10.3093V16.1945C41.0214 16.1945 42.3387 14.877 42.3387 13.2519Z" fill="#A3A0CA"/>
<path d="M13.0685 26.5225C13.0685 24.8974 11.751 23.5799 10.1259 23.5799V29.4651C11.751 29.4651 13.0685 28.1478 13.0685 26.5225Z" fill="#FFD885"/>
</svg>
