<svg width="24" height="24" viewBox="0 0 24 24" fill="none" xmlns="http://www.w3.org/2000/svg">
<path d="M11.694 0.0209999L12 0C12.5437 2.29287e-05 13.069 0.196928 13.4788 0.554301C13.8886 0.911674 14.1551 1.40534 14.229 1.944L14.25 2.25V9.747L21.75 9.75C22.2937 9.75002 22.819 9.94693 23.2288 10.3043C23.6386 10.6617 23.9051 11.1553 23.979 11.694L24 12C24 12.5437 23.8031 13.069 23.4457 13.4788C23.0883 13.8886 22.5947 14.1551 22.056 14.229L21.75 14.25L14.25 14.247V21.75C14.25 22.2937 14.0531 22.819 13.6957 23.2288C13.3383 23.6386 12.8447 23.9051 12.306 23.979L12 24C11.4563 24 10.931 23.8031 10.5212 23.4457C10.1114 23.0883 9.84494 22.5947 9.771 22.056L9.75 21.75V14.247L2.25 14.25C1.70629 14.25 1.18097 14.0531 0.771208 13.6957C0.361442 13.3383 0.0949448 12.8447 0.0209999 12.306L0 12C2.29287e-05 11.4563 0.196928 10.931 0.554301 10.5212C0.911674 10.1114 1.40534 9.84494 1.944 9.771L2.25 9.75L9.75 9.747V2.25C9.75002 1.70629 9.94693 1.18097 10.3043 0.771208C10.6617 0.361442 11.1553 0.0949448 11.694 0.0209999L12 0L11.694 0.0209999Z" fill="#FFD485"/>
</svg>
