<svg width="140" height="140" viewBox="0 0 140 140" fill="none" xmlns="http://www.w3.org/2000/svg">
<path d="M132.125 82.5202C132.125 85.0503 131.1 87.3387 129.444 88.9952C127.785 90.6517 125.496 91.6763 122.969 91.6763H17.0312C11.9764 91.6763 7.87512 87.578 7.87512 82.5202C7.87512 81.1653 8.16825 79.8818 8.69489 78.7262C9.15317 77.7216 9.78508 76.8166 10.5562 76.0452C12.2154 74.3887 14.5038 73.3641 17.0312 73.3641H122.969C126.672 73.3641 129.862 75.5612 131.305 78.7262C131.832 79.8818 132.125 81.1653 132.125 82.5202Z" fill="#9D6E1E"/>
<path d="M131.305 78.7262C130.847 79.7281 130.212 80.6359 129.444 81.4045C127.785 83.061 125.496 84.0856 122.969 84.0856H17.0311C13.3312 84.0856 10.1408 81.8885 8.69482 78.7265C9.15311 77.7219 9.78475 76.8168 10.5561 76.0454C12.2153 74.389 14.5037 73.3644 17.0311 73.3644H122.969C126.672 73.3641 129.862 75.5615 131.305 78.7262Z" fill="#D7A251"/>
<path d="M140 99.0672C140 110.864 134.538 119.63 125.71 125.445C116.878 131.262 104.68 134.128 91.2062 134.128H48.7936C21.8468 134.128 0 122.662 0 99.0672C0 97.7522 0.327305 96.5056 0.919297 95.3843C1.42023 94.4281 2.11176 93.5656 2.95148 92.8312C4.77313 91.2346 7.29477 90.2469 10.0754 90.2469H129.925C133.986 90.2469 137.487 92.353 139.081 95.3843C139.673 96.5059 140 97.7525 140 99.0672Z" fill="#FFD885"/>
<path d="M139.081 95.3846C137.18 103.24 132.415 109.359 125.71 113.776C116.878 119.593 104.68 122.46 91.2063 122.46H48.7937C25.0856 122.46 5.32807 113.585 0.919434 95.3846C1.42037 94.4284 2.11189 93.5659 2.95162 92.8315C4.77326 91.2349 7.2949 90.2472 10.0755 90.2472H129.925C133.986 90.2472 137.487 92.3535 139.081 95.3846Z" fill="#FFD885"/>
<path d="M108.934 69.522L85.2485 93.2075C84.6538 93.7995 84.0189 94.3231 83.3473 94.7756C78.3325 98.1709 71.4621 97.6503 67.0193 93.2075L43.3339 69.522H108.934Z" fill="#FFBC2E"/>
<path d="M108.934 69.522L85.2485 93.2075C84.6537 93.7995 84.0188 94.3231 83.3473 94.7756C81.5401 94.1609 79.8437 93.1334 78.4035 91.6904L56.2351 69.522H108.934Z" fill="#FFBC2E"/>
<path d="M137.342 72.8263C137.342 74.0671 137.137 75.3364 136.693 76.5745C134.954 81.4272 130.298 83.3112 126.669 80.6302L122.317 77.417C119.28 75.1715 115.407 76.0908 113.209 79.5802L113.024 79.8733C110.915 83.2259 107.238 84.222 104.235 82.2582L94.4903 75.8857C92.2419 74.4171 89.5466 74.5765 87.4179 76.3098L79.6082 82.6624C77.3655 84.4867 74.5081 84.5636 72.2055 82.8587L63.2971 76.2557C61.0202 74.568 58.197 74.6219 55.9627 76.3979L47.8515 82.839C45.6741 84.5666 42.9362 84.6661 40.685 83.1037L30.1828 75.8062C28.1164 74.3717 25.6262 74.3318 23.5314 75.7009L13.7352 82.1075C7.21184 82.9473 4.0386 78.1572 4.0386 78.1572C2.47617 75.442 2.31949 72.223 3.16496 69.522C4.16957 66.2946 6.60317 63.8072 9.76793 63.8072H130.235C133.337 63.8072 135.816 66.2577 136.835 69.5078C137.165 70.5493 137.342 71.6737 137.342 72.8263Z" fill="#72B766"/>
<path d="M136.835 69.5078C136.792 69.65 136.744 69.7895 136.693 69.9319C134.954 74.7874 130.298 76.6716 126.669 73.9906L122.317 70.7744C119.28 68.5317 115.407 69.451 113.21 72.9376L113.024 73.2334C110.915 76.586 107.238 77.5822 104.236 75.6183L94.4906 69.2459C92.2421 67.7745 89.5468 67.9367 87.4181 69.67L79.6085 76.0225C77.3657 77.8469 74.5083 77.921 72.2057 76.2161L63.2974 69.6131C61.0205 67.9255 58.1972 67.9823 55.963 69.7553L47.8514 76.1989C45.6741 77.9237 42.9361 78.026 40.6849 76.4635L30.1827 69.166C28.1164 67.7289 25.6262 67.6889 23.5314 69.0608L13.7352 75.4644C7.21179 76.3069 4.03855 71.514 4.03855 71.514C3.67132 70.8737 3.38121 70.2048 3.16492 69.5218C4.16953 66.2944 6.60312 63.8067 9.76789 63.8067H130.235C133.337 63.8069 135.816 66.2575 136.835 69.5078Z" fill="#72B766"/>
<path d="M134.911 57.9496C134.931 58.8974 134.806 59.8109 134.561 60.6733C133.46 64.5099 129.925 67.3162 125.735 67.3162C109.285 67.3162 65.4688 66.9463 58.8603 67.1653C58.7124 67.171 58.5645 67.1768 58.4193 67.1795C50.0745 67.4953 48.1733 68.833 48.1733 73.2815V89.5585C48.1733 90.3952 47.8345 91.1551 47.2855 91.7044C46.7361 92.2537 45.979 92.5922 45.1423 92.5922C43.4658 92.5922 42.1082 93.9499 42.1082 95.6263V102.716C42.1082 103.436 42.0229 104.133 41.8577 104.805C40.9215 108.682 37.4234 111.559 33.2226 111.559H32.9978C28.2219 111.559 24.3569 107.68 24.3711 102.904L24.411 90.0709C24.4138 89.0862 24.8152 88.1924 25.4613 87.5492C26.1102 86.9031 27.001 86.5047 27.9887 86.5047C29.964 86.5047 31.5664 84.9024 31.5664 82.927V73.2815C31.5664 69.9858 28.8968 67.3162 25.601 67.3162H14.4382C9.41491 67.3162 5.18838 63.3517 5.08584 58.3283C4.98331 53.174 9.13299 48.9617 14.2646 48.9617H125.553C130.579 48.9617 134.811 52.9263 134.911 57.9496Z" fill="#FF6752"/>
<path d="M134.911 57.9496C134.931 58.8974 134.806 59.8109 134.561 60.6733C117.146 60.6564 75.5327 60.3119 69.1064 60.5224C60.3859 60.8098 58.4194 62.1163 58.4194 66.6417V67.1795C50.0746 67.4953 48.1734 68.833 48.1734 73.2815V89.5585C48.1734 90.3952 47.8346 91.1551 47.2855 91.7044C46.7362 92.2537 45.979 92.5922 45.1423 92.5922C43.4659 92.5922 42.1083 93.9499 42.1083 95.6263V102.716C42.1083 103.436 42.023 104.133 41.8578 104.805C37.7423 104.142 34.603 100.564 34.6172 96.261L34.6571 83.4307C34.6598 82.4431 35.0612 81.5522 35.7074 80.9091C36.3562 80.2629 37.2471 79.8645 38.2348 79.8645C40.2101 79.8645 41.8124 78.2622 41.8124 76.2869V66.6414C41.8124 63.3456 39.1428 60.6761 35.8471 60.6761H24.6843C19.661 60.6761 15.4344 56.7115 15.3319 51.6882C15.3119 50.7404 15.4372 49.8269 15.6849 48.9617H125.553C130.579 48.9617 134.812 52.9263 134.911 57.9496Z" fill="#FF6752"/>
<path d="M82.4062 39.632L62.0991 59.9476C60.0642 61.9825 57.6648 63.4312 55.1089 64.2879C48.8076 66.4169 41.5672 64.9682 36.5524 59.9476L16.2371 39.632H82.4062Z" fill="#FFBC2E"/>
<path d="M82.406 39.632L62.0989 59.9476C60.0639 61.9825 57.6645 63.4312 55.1087 64.2879C52.5556 63.4312 50.1565 61.9825 48.1243 59.9476L27.8087 39.632H82.406Z" fill="#FFBC2E"/>
<path d="M140 42.4898C140 42.6407 139.994 42.7886 139.986 42.9366C139.875 44.8462 139.055 46.5681 137.786 47.8377C136.417 49.2068 134.527 50.052 132.438 50.052H7.56219C3.3868 50.0517 0 46.6649 0 42.4898C0 33.4278 4.20082 26.6055 10.5448 21.4739C15.6934 17.3073 22.2564 14.2532 29.1271 12.0135C48.3498 5.75507 70 5.87155 70 5.87155C70 5.87155 140 5.49311 140 42.4898Z" fill="#FFD885"/>
<path d="M140 42.4898C140 42.6407 139.994 42.7886 139.986 42.9365H22.931C18.7558 42.9365 15.3688 39.5498 15.3688 35.3744C15.3688 26.3124 19.5696 19.4901 25.9136 14.3588C26.9324 13.5333 28.0054 12.7537 29.1268 12.0135C48.3497 5.75507 69.9999 5.87155 69.9999 5.87155C69.9999 5.87155 140 5.49312 140 42.4898Z" fill="#FFD885"/>
<path d="M107.625 19.101C108.839 20.3856 108.782 22.4109 107.497 23.625C106.213 24.8388 104.187 24.7814 102.974 23.497C101.76 22.2127 99.5255 17.7619 100.81 16.5479C102.095 15.3338 106.411 17.8161 107.625 19.101Z" fill="#FFF5CC"/>
<path d="M90.6622 34.9163C91.2958 36.5663 90.4719 38.4174 88.822 39.051C87.1721 39.6845 85.3209 38.8607 84.6873 37.2107C84.0538 35.5608 83.6816 30.5949 85.3313 29.9614C86.9812 29.3281 90.0287 33.2664 90.6622 34.9163Z" fill="#FFF5CC"/>
<path d="M73.2001 21.7544C73.2001 23.5219 71.7673 24.9545 70.0001 24.9545C68.2326 24.9545 66.8 23.5216 66.8 21.7544C66.8 19.9869 68.2329 15.2179 70.0001 15.2179C71.7676 15.2176 73.2001 19.9869 73.2001 21.7544Z" fill="#FFF5CC"/>
<path d="M55.6046 36.9217C55.1628 38.6329 53.4171 39.6618 51.706 39.22C49.9948 38.7781 48.9658 37.0325 49.4077 35.3213C49.8496 33.6101 52.4295 29.3508 54.1409 29.7927C55.8521 30.2345 56.0465 35.2108 55.6046 36.9217Z" fill="#FFF5CC"/>
<path d="M37.9994 22.9824C37.2288 24.5727 35.315 25.2377 33.7242 24.4672C32.1339 23.6967 31.4689 21.7829 32.2394 20.192C33.01 18.6017 36.3784 14.9338 37.9693 15.7046C39.5599 16.4754 38.7699 21.3921 37.9994 22.9824Z" fill="#FFF5CC"/>
</svg>
