<svg width="28" height="26" viewBox="0 0 28 26" fill="none" xmlns="http://www.w3.org/2000/svg">
<path fill-rule="evenodd" clip-rule="evenodd" d="M19.1329 0.334258C19.9743 0.334258 20.8143 0.452925 21.6129 0.720925C26.5343 2.32093 28.3076 7.72093 26.8263 12.4409C25.9863 14.8529 24.6129 17.0543 22.8143 18.8529C20.2396 21.3463 17.4143 23.5596 14.3729 25.4663L14.0396 25.6676L13.6929 25.4529C10.6409 23.5596 7.79962 21.3463 5.20095 18.8396C3.41428 17.0409 2.03962 14.8529 1.18628 12.4409C-0.320385 7.72093 1.45295 2.32092 6.42762 0.692925C6.81428 0.559592 7.21295 0.466258 7.61295 0.414258H7.77295C8.14762 0.359592 8.51962 0.334258 8.89295 0.334258H9.03962C9.87961 0.359592 10.6929 0.506258 11.4809 0.774258H11.5596C11.6129 0.799592 11.6529 0.827592 11.6796 0.852925C11.9743 0.947592 12.2529 1.05426 12.5196 1.20092L13.0263 1.42759C13.1487 1.49289 13.2861 1.59266 13.4049 1.67889C13.4801 1.73352 13.5479 1.78271 13.5996 1.81426C13.6214 1.8271 13.6435 1.84001 13.6658 1.85302C13.7801 1.91976 13.8992 1.98927 13.9996 2.06626C15.4809 0.934258 17.2796 0.320925 19.1329 0.334258ZM22.6796 9.93426C23.2263 9.91959 23.6929 9.48092 23.7329 8.91959V8.76092C23.7729 6.89292 22.6409 5.20092 20.9196 4.54759C20.373 4.35959 19.773 4.65426 19.573 5.21426C19.3863 5.77426 19.6796 6.38759 20.2396 6.58626C21.0943 6.90626 21.6663 7.74759 21.6663 8.67959V8.72092C21.641 9.02626 21.733 9.32092 21.9196 9.54759C22.1063 9.77426 22.3863 9.90626 22.6796 9.93426Z" fill="#91C788"/>
</svg>
