<svg width="83" height="64" viewBox="0 0 83 64" fill="none" xmlns="http://www.w3.org/2000/svg">
<path d="M47.2062 10.4868C45.3992 10.9907 43.5598 10.1498 42.71 8.60215C40.8043 5.09281 35.5652 4.26212 32.6789 7.08793C31.2689 8.43473 29.2223 8.4558 27.8445 7.50577C24.6155 5.33889 19.7201 6.6889 18.2266 10.5481C17.5671 12.2604 15.8047 13.2082 14.0146 12.874C12.1963 12.5079 10.0006 13.4658 8.93091 14.6821L31.0232 36.7746C32.4382 36.892 33.8774 36.982 35.3347 37.0444L55.2204 16.8267C55.4259 12.7992 51.1657 9.36385 47.2062 10.4868Z" fill="#4CA346"/>
<path d="M43.6507 16.1805C47.8747 20.4046 54.5465 20.6893 59.1003 17.0345C59.636 16.6046 59.6725 15.8006 59.1869 15.3149L44.5162 0.64422C44.0307 0.158671 43.2265 0.195179 42.7966 0.730908C39.1419 5.28468 39.4266 11.9566 43.6507 16.1805Z" fill="#FF6752"/>
<path d="M44.5293 15.3019C40.4918 11.2644 40.4918 4.69476 44.5293 0.65725C43.5149 -0.357113 41.8249 -0.171353 41.049 1.03504C37.8527 6.00489 38.4268 12.7143 42.7719 17.0591C47.1167 21.404 53.8261 21.9783 58.796 18.782C60.0024 18.0061 60.1881 16.3161 59.1738 15.3017C55.1364 19.3392 48.5666 19.3392 44.5293 15.3019Z" fill="#FF6752"/>
<path d="M49.5085 10.3227C50.8025 11.6168 52.9008 11.6169 54.1948 10.3227L49.5085 5.63626C48.2143 6.93047 48.2143 9.02851 49.5085 10.3227Z" fill="#FF9C8F"/>
<path d="M44.0395 7.0482C43.9599 7.72048 43.967 8.40127 44.0602 9.07178C44.1548 9.75145 44.7827 10.2257 45.4622 10.1312C45.7406 10.0924 45.9844 9.96439 46.1689 9.77976C46.4349 9.51374 46.5774 9.13048 46.5216 8.72905C46.4576 8.26891 46.4526 7.80169 46.5073 7.34011C46.588 6.65851 46.1007 6.04059 45.4193 5.96018C44.738 5.8796 44.1201 6.36676 44.0395 7.0482Z" fill="#FFD885"/>
<path d="M48.5637 12.2446C48.3822 12.1044 48.2073 11.9505 48.0438 11.7872C47.8791 11.6226 47.724 11.4463 47.5827 11.2628C47.1639 10.7192 46.3835 10.6182 45.8399 11.0371C45.2961 11.4553 45.1953 12.2363 45.6143 12.7799C45.8204 13.0474 46.0466 13.3047 46.2864 13.5445C46.5244 13.7825 46.7796 14.0069 47.0445 14.2118C47.5447 14.5981 48.2463 14.5436 48.6818 14.108C48.7191 14.0707 48.7545 14.0305 48.7876 13.9877C49.2071 13.4446 49.1067 12.6641 48.5637 12.2446Z" fill="#FFD885"/>
<path d="M30.3696 33.7235C29.3234 33.0028 28.9223 31.6613 29.4408 30.4873C30.6057 27.8377 28.8597 24.7464 26.2026 24.2206C25.0562 24.009 24.0588 22.9856 24.0277 21.621C23.998 18.7937 21.0089 16.6117 18.3422 17.4052C17.1615 17.7507 15.8414 17.2565 15.1998 16.1126C13.803 13.5971 10.0134 13.1887 8.13099 15.2836C7.23612 16.3053 5.85233 16.4197 4.5274 16.1281C1.83734 15.5166 -0.87331 17.9482 0.267787 20.546C0.596366 21.3125 1.20945 21.9301 1.89057 22.3175C3.09424 23.0072 4.09235 23.9823 3.92831 25.3733C3.7567 26.8616 4.25463 28.4005 5.31709 29.5125C6.25393 30.4609 7.01498 30.6931 7.6078 30.9387C7.19801 30.7026 6.83292 30.4739 6.51367 30.2561C6.83292 30.4741 7.19817 30.7026 7.6078 30.9387C7.84632 31.0375 8.05765 31.1388 8.24212 31.2895C9.62206 32.0229 11.4523 32.8145 13.8609 33.5911C19.0358 35.2598 25.3961 36.3824 32.2775 36.8708C32.0866 35.5795 31.3771 34.3967 30.3696 33.7235Z" fill="#4CA346"/>
<path d="M30.5363 13.5135C24.1308 13.5135 18.9382 18.7061 18.9382 25.1115C18.9382 27.38 19.592 29.4948 20.718 31.2824C26.1679 32.4111 32.3902 33.0588 38.8845 33.158C40.8952 31.0724 42.1343 28.2374 42.1343 25.1115C42.1341 18.7061 36.9414 13.5135 30.5363 13.5135Z" fill="#FF6752"/>
<path d="M31.7794 31.7389V18.4841C31.7794 17.7978 31.223 17.2415 30.5368 17.2415C29.8505 17.2415 29.2942 17.7978 29.2942 18.4841V31.7389C29.2942 32.0903 29.4407 32.407 29.675 32.6329C30.1863 32.6844 30.7015 32.732 31.2197 32.7762C31.5566 32.5543 31.7794 32.1726 31.7794 31.7389Z" fill="#FF9C8F"/>
<path d="M30.5364 28.4246C32.3666 28.4246 33.8502 26.941 33.8502 25.1108C33.8502 23.2807 32.3666 21.7971 30.5364 21.7971C28.7063 21.7971 27.2227 23.2807 27.2227 25.1108C27.2227 26.941 28.7063 28.4246 30.5364 28.4246Z" fill="#FF9C8F"/>
<path d="M30.5362 12.2709C23.4557 12.2709 17.6956 18.031 17.6956 25.1115C17.6956 27.2037 18.2017 29.1789 19.0933 30.926C20.1937 31.1808 21.3294 31.4154 22.4967 31.6285C21.05 29.8475 20.181 27.5793 20.181 25.1115C20.181 19.4017 24.8265 14.7562 30.5363 14.7562C36.2462 14.7562 40.8916 19.4017 40.8916 25.1115C40.8916 28.3334 39.4121 31.2158 37.0974 33.1165C38.2302 33.1516 39.3727 33.1701 40.5225 33.1712C42.306 30.9659 43.3771 28.1621 43.3771 25.1115C43.3768 18.031 37.6163 12.2709 30.5362 12.2709Z" fill="#FF6752"/>
<path d="M25.6708 18.929C25.1391 19.3481 24.6627 19.8344 24.2547 20.3745C23.841 20.9221 23.9494 21.7014 24.4969 22.115C24.7212 22.2844 24.9842 22.3664 25.2451 22.3664C25.6214 22.3664 25.9931 22.1961 26.2376 21.8728C26.5176 21.5021 26.8447 21.1684 27.2096 20.8807C27.7486 20.4559 27.841 19.6743 27.4161 19.1355C26.991 18.5965 26.2097 18.504 25.6708 18.929Z" fill="#FFD885"/>
<path d="M27.205 29.3386C26.8406 29.0507 26.5139 28.7167 26.2342 28.3455C25.8212 27.7975 25.042 27.6882 24.4939 28.1013C23.9459 28.5145 23.8366 29.2936 24.2497 29.8417C24.6573 30.3822 25.1334 30.8692 25.6646 31.2889C25.8926 31.469 26.1643 31.5565 26.434 31.5565C26.8012 31.5565 27.1646 31.3944 27.4099 31.084C27.8353 30.5455 27.7436 29.764 27.205 29.3386Z" fill="#FFD885"/>
<path d="M25.1959 25.8026C25.1666 25.5751 25.1518 25.3426 25.1518 25.1115C25.1518 24.8786 25.1669 24.6443 25.1967 24.4146C25.2848 23.7341 24.8046 23.1107 24.124 23.0226C23.4438 22.9338 22.8201 23.4147 22.732 24.0953C22.6885 24.4302 22.6665 24.772 22.6665 25.1113C22.6665 25.4479 22.6882 25.7871 22.7308 26.1192C22.8114 26.7462 23.346 27.2037 23.9618 27.2037C24.0146 27.2037 24.068 27.2002 24.1217 27.1934C24.8023 27.1059 25.2832 26.4834 25.1959 25.8026Z" fill="#FFD885"/>
<path d="M33.8678 20.8843C34.2322 21.1722 34.5589 21.5063 34.8386 21.8775C35.0827 22.2016 35.455 22.372 35.8319 22.372C36.0923 22.372 36.3549 22.2903 36.5789 22.1215C37.1269 21.7083 37.2362 20.9292 36.8231 20.3811C36.4155 19.8406 35.9395 19.3536 35.4082 18.9339C34.8698 18.5085 34.0883 18.6001 33.6629 19.1387C33.2375 19.6775 33.329 20.4588 33.8678 20.8843Z" fill="#FFD885"/>
<path d="M36.5758 28.1078C36.028 27.6941 35.249 27.8025 34.8353 28.35C34.5553 28.7207 34.2282 29.0544 33.8633 29.3421C33.3243 29.7669 33.2318 30.5485 33.6567 31.0873C33.902 31.3984 34.2658 31.5607 34.6335 31.5607C34.9029 31.5607 35.174 31.4735 35.4021 31.2937C35.9338 30.8745 36.4102 30.3882 36.8182 29.8481C37.2319 29.3008 37.1235 28.5214 36.5758 28.1078Z" fill="#FFD885"/>
<path d="M38.342 24.1034C38.2545 23.4227 37.6313 22.942 36.9511 23.0292C36.2705 23.1167 35.7895 23.7394 35.877 24.4201C35.9062 24.6475 35.921 24.88 35.921 25.1111C35.921 25.344 35.9059 25.5784 35.8762 25.808C35.788 26.4885 36.2683 27.1119 36.9489 27.2C37.0031 27.2069 37.0568 27.2105 37.11 27.2105C37.7252 27.2105 38.2597 26.7537 38.3409 26.1273C38.3843 25.7924 38.4063 25.4507 38.4063 25.1113C38.4063 24.7747 38.3846 24.4357 38.342 24.1034Z" fill="#FFD885"/>
<path d="M75.8451 10.4392C73.9427 10.8557 71.9556 10.6923 70.6706 9.23277C67.968 6.24018 62.5262 6.82335 60.5205 10.4171C59.5991 12.0512 57.7039 12.7572 56.0084 12.2636C52.1791 11.1296 47.8875 14.247 47.8447 18.286C47.8002 20.2354 46.3678 21.6973 44.7217 21.9999C40.9063 22.751 38.3993 27.1671 40.0721 30.9521C40.8166 32.6294 40.2405 34.5457 38.7383 35.5752C38.1468 35.9686 37.6278 36.4842 37.2009 37.0813C38.4856 37.1251 39.7829 37.1479 41.0897 37.1479C50.9589 37.1479 60.3121 35.8846 67.4259 33.5907C68.3787 33.2835 70.098 32.6229 70.878 32.3154C71.7637 30.8749 72.4521 31.8345 74.7111 29.5591C76.2364 27.9709 76.9517 25.7723 76.7053 23.6461C76.4696 21.6591 77.9028 20.266 79.6313 19.2809C80.6091 18.7274 81.4897 17.8451 81.9612 16.7502C83.5999 13.0393 79.7078 9.56553 75.8451 10.4392Z" fill="#4CA346"/>
<path d="M67.1172 30.9903C66.7272 26.4702 62.9256 22.91 58.3061 22.91C53.4281 22.91 49.4597 26.8785 49.4597 31.7564C49.4597 32.933 49.6924 34.0559 50.1116 35.084C55.119 34.485 59.7346 33.5331 63.6655 32.2656C64.9819 31.841 66.1247 31.412 67.1172 30.9903Z" fill="#FF6752"/>
<path d="M62.1822 26.7859C62.1822 26.7745 62.1822 26.7629 62.1822 26.7515C62.1742 24.6441 60.4481 22.9182 58.3407 22.91C58.3293 22.91 58.3177 22.91 58.3063 22.91C53.4283 22.91 49.46 26.8785 49.46 31.7564C49.46 31.7678 49.46 31.7794 49.46 31.7908C49.4651 33.0992 50.1327 34.2604 51.1423 34.9547C53.923 34.591 56.573 34.1166 59.0418 33.5386C60.9607 31.9148 62.1822 29.4909 62.1822 26.7859Z" fill="#FF6752"/>
<path d="M29.8733 3.10123C28.9067 2.1348 27.3251 2.1348 26.3586 3.10123C25.3922 4.06766 25.3922 5.64944 26.3586 6.61587L29.8733 10.1305C30.8399 11.097 32.4215 11.097 33.3879 10.1305C34.3543 9.16409 34.3543 7.58247 33.3879 6.61587L29.8733 3.10123Z" fill="#FF6752"/>
<path d="M68.8093 15.7287H63.8388C62.4719 15.7287 61.3535 16.8472 61.3535 18.2141C61.3535 19.581 62.4719 20.6994 63.8388 20.6994H68.8093C70.1762 20.6994 71.2947 19.581 71.2947 18.2141C71.2947 16.8472 70.1762 15.7287 68.8093 15.7287Z" fill="#FF6752"/>
<path d="M13.6362 21.161L10.1216 24.6756C9.15512 25.6421 9.15512 27.2237 10.1216 28.1903C11.088 29.1567 12.6696 29.1567 13.6362 28.1903L17.1508 24.6756C18.1174 23.7092 18.1174 22.1276 17.1508 21.161C16.1842 20.1945 14.6026 20.1945 13.6362 21.161Z" fill="#FF6752"/>
<path d="M75.5213 30.8628H40.6454L17.7786 55.8504H17.7821C17.7821 55.9543 17.7839 56.0578 17.7876 56.1611C17.9444 60.5608 21.6097 64 25.9557 64H40.6456H55.3354C59.6814 64 63.3467 60.5609 63.5035 56.1611C63.5072 56.0578 63.509 55.9543 63.509 55.8504H63.5125C71.9131 51.5319 78.0269 44.9003 80.2147 37.1822C81.1115 34.0178 78.7712 30.8628 75.5213 30.8628Z" fill="#A2AF9F"/>
<path d="M50.3118 48.3456C55.714 41.189 50.6769 30.8628 41.7837 30.8628H5.76944C2.53159 30.8628 0.178627 34 1.06835 37.1539C3.24938 44.8849 9.3703 51.5267 17.7826 55.8504H35.2606C41.1132 55.8504 46.6624 53.1354 50.2386 48.4423C50.2631 48.4101 50.2875 48.378 50.3118 48.3456Z" fill="#A2AF9F"/>
</svg>
