<svg width="27" height="28" viewBox="0 0 27 28" fill="none" xmlns="http://www.w3.org/2000/svg">
<path d="M22.5338 14.8038C22.5336 14.8035 22.5335 14.8033 22.5335 14.803C22.5198 14.7703 22.5047 14.7383 22.4881 14.7073C22.4799 14.692 22.4703 14.6778 22.4616 14.6631C22.4529 14.6487 22.4448 14.6339 22.4355 14.6199C22.4221 14.5999 22.4074 14.581 22.3928 14.5621C22.3866 14.5541 22.3809 14.5456 22.3745 14.5377C22.3603 14.5204 22.3449 14.5041 22.3295 14.4876C22.3214 14.4789 22.3137 14.4696 22.3054 14.4612C22.2918 14.4476 22.2773 14.4352 22.2632 14.4225C22.2516 14.4121 22.2403 14.4013 22.2283 14.3914C22.2167 14.3818 22.2044 14.3733 22.1924 14.3643C22.1767 14.3525 22.1612 14.3404 22.1448 14.3294C22.1355 14.3232 22.1257 14.3179 22.1163 14.3121C22.0966 14.2998 22.0769 14.2874 22.0563 14.2763C22.0484 14.2721 22.04 14.2687 22.0318 14.2646C22.0095 14.2533 21.9873 14.2422 21.9639 14.2325C21.9511 14.2272 21.9377 14.2231 21.9247 14.2183C21.9059 14.2113 21.8874 14.2038 21.868 14.1979C21.8345 14.1875 21.8002 14.179 21.7657 14.1721C21.7654 14.1721 21.7651 14.1719 21.7648 14.1718C21.7605 14.1709 21.7565 14.1708 21.7521 14.1699C21.7222 14.1642 21.692 14.1596 21.6615 14.1565C21.6503 14.1554 21.639 14.1554 21.6278 14.1546C21.6046 14.153 21.5814 14.1514 21.5581 14.1514C21.5424 14.1514 21.5269 14.1526 21.5113 14.1533C21.4926 14.1541 21.4741 14.1546 21.4554 14.1564C21.436 14.1582 21.4168 14.1616 21.3978 14.1645C21.383 14.1667 21.3684 14.1684 21.3536 14.1713C21.3299 14.176 21.3066 14.1823 21.2833 14.1886C21.2733 14.1913 21.2633 14.1933 21.2531 14.1963C21.2223 14.2056 21.1922 14.2165 21.1625 14.2286C21.1598 14.2296 21.1571 14.2303 21.1546 14.2314L21.1533 14.2319C21.1515 14.2326 21.1499 14.2334 21.1481 14.234L15.4064 16.6078C14.8675 16.8305 14.6113 17.448 14.8341 17.9869C14.9454 18.2564 15.1555 18.4551 15.4051 18.5587C15.6546 18.6623 15.9438 18.6706 16.2131 18.5592L19.7857 17.0823C18.2302 20.0415 14.8557 21.7624 11.4166 21.076C8.89916 20.5735 6.7986 18.8595 5.79789 16.4911C5.57084 15.9539 4.95146 15.7025 4.41435 15.9294C3.87716 16.1564 3.62582 16.7758 3.85268 17.313C4.87159 19.7243 6.78648 21.6024 9.153 22.5844L9.15308 22.5844C9.74387 22.8295 10.3631 23.019 11.0033 23.1468C15.3591 24.0163 19.6285 21.8555 21.6224 18.1267L22.9586 21.3584C23.1813 21.8973 23.7988 22.1535 24.3377 21.9307C24.8766 21.7079 25.1328 21.0905 24.91 20.5516L22.5338 14.8038Z" fill="#FF8473"/>
<path d="M4.46615 13.1789C4.46634 13.1792 4.46641 13.1794 4.46647 13.1797C4.48013 13.2123 4.49521 13.2443 4.51188 13.2754C4.52009 13.2907 4.52959 13.3048 4.53837 13.3195C4.54707 13.334 4.55513 13.3488 4.56446 13.3628C4.57787 13.3828 4.59255 13.4016 4.60715 13.4205C4.61331 13.4286 4.61904 13.4371 4.62547 13.4449C4.63967 13.4623 4.65507 13.4786 4.67043 13.495C4.67855 13.5037 4.68622 13.513 4.69458 13.5215C4.70815 13.535 4.72265 13.5474 4.73676 13.5602C4.74834 13.5706 4.75964 13.5814 4.77161 13.5913C4.78328 13.6009 4.79552 13.6094 4.80758 13.6183C4.82327 13.6302 4.8387 13.6423 4.85512 13.6532C4.86444 13.6594 4.87428 13.6647 4.88365 13.6706C4.90339 13.6829 4.92309 13.6953 4.94365 13.7063C4.95157 13.7106 4.95998 13.714 4.96811 13.7181C4.99044 13.7293 5.01268 13.7405 5.03602 13.7502C5.04883 13.7555 5.06222 13.7596 5.07525 13.7644C5.09408 13.7713 5.11251 13.7788 5.13195 13.7848C5.16547 13.7951 5.19972 13.8036 5.23419 13.8106C5.23449 13.8106 5.23488 13.8108 5.23516 13.8108C5.23944 13.8117 5.24348 13.8119 5.2478 13.8128C5.27777 13.8184 5.30797 13.8231 5.33844 13.8261C5.34968 13.8273 5.3609 13.8273 5.37215 13.8281C5.39535 13.8296 5.41849 13.8312 5.44187 13.8313C5.45751 13.8313 5.47302 13.83 5.48867 13.8294C5.5073 13.8286 5.5258 13.8281 5.54458 13.8263C5.56397 13.8244 5.58311 13.8211 5.60212 13.8182C5.61693 13.8159 5.63156 13.8143 5.64633 13.8114C5.67001 13.8066 5.69333 13.8004 5.71661 13.7941C5.72665 13.7914 5.73668 13.7894 5.74682 13.7863C5.77767 13.777 5.80772 13.7661 5.83746 13.7541C5.84009 13.7531 5.84279 13.7524 5.84534 13.7513L5.84665 13.7507C5.84846 13.75 5.85008 13.7493 5.85182 13.7487L11.5935 11.3748C12.1324 11.1521 12.3887 10.5346 12.1659 9.99574C12.0545 9.72623 11.8444 9.52754 11.5948 9.42395C11.3453 9.32041 11.0561 9.31204 10.7868 9.42344L7.21423 10.9004C8.76975 7.94119 12.1442 6.22025 15.5833 6.90669C18.1008 7.4092 20.2013 9.1232 21.2021 11.4915C21.4291 12.0288 22.0485 12.2802 22.5856 12.0532C23.1228 11.8263 23.3741 11.2069 23.1473 10.6697C22.1283 8.25832 20.2135 6.38028 17.8469 5.39827L17.8469 5.39823C17.2561 5.15315 16.6368 4.96367 15.9966 4.83584C11.6409 3.96641 7.37145 6.12721 5.37753 9.85597L4.04139 6.62428C3.81866 6.08541 3.20118 5.82915 2.66227 6.05196C2.12333 6.27474 1.86711 6.89214 2.08995 7.43107L4.46615 13.1789Z" fill="#FF8473"/>
</svg>
