<svg width="40" height="40" viewBox="0 0 40 40" fill="none" xmlns="http://www.w3.org/2000/svg">
<g clip-path="url(#clip0_1_4844)">
<path d="M30.2118 19.5058C31.3283 19.7707 32.5484 19.765 33.8498 19.2157C36.087 18.2721 37.6778 16.1263 37.7275 13.6983C37.7837 10.9788 36.0582 8.6595 33.6411 7.81155C33.4712 5.34255 31.4197 3.39182 28.9082 3.39182C28.901 3.39182 28.8938 3.39254 28.8866 3.39254C28.9312 3.01895 28.906 2.62376 28.7851 2.2113C28.4454 1.05238 27.4268 0.163399 26.2276 0.0208734C25.2443 -0.0957384 24.3416 0.256256 23.7089 0.881785C23.1086 0.339756 22.3196 -1.57591e-06 21.4451 -1.57591e-06C19.5714 -1.57591e-06 18.0525 1.51883 18.0525 3.39254C18.0525 3.3983 18.054 3.40405 18.054 3.40981C15.7764 3.58257 13.9812 5.48147 13.9812 7.80291C13.9812 8.15778 14.0273 8.50114 14.1064 8.83154C11.3956 8.94455 9.23105 11.171 9.23105 13.9092C9.23105 14.837 9.48299 15.7037 9.91705 16.4531C9.08421 17.1376 8.55298 18.1756 8.55298 19.3374C8.55298 20.962 9.59313 22.3405 11.0429 22.853C10.8557 29.4877 13.2232 33.4021 17.8035 38.6748C17.8855 38.7691 17.9683 38.8641 18.0518 38.9584C18.0698 38.9786 18.0878 38.9987 18.1058 39.0189C20.0104 41.156 24.3064 39.5192 23.3821 36.8097C18.4477 22.334 33.6576 24.4266 33.6576 24.4266C33.6576 24.4266 34.0924 20.0479 30.1686 19.8427C30.1737 19.7333 30.1787 19.6232 30.1837 19.5138C30.1938 19.5116 30.2017 19.508 30.2118 19.5058Z" fill="#91C788"/>
<path d="M18.1065 39.0189C18.0885 38.9987 18.0705 38.9786 18.0525 38.9584C17.969 38.8641 17.8862 38.7698 17.8042 38.6748C13.2232 33.4021 10.8557 29.4877 11.0435 22.853C9.59382 22.3405 8.55367 20.962 8.55367 19.3374C8.55367 18.1749 9.0849 17.1376 9.91774 16.4531C9.4844 15.7037 9.23175 14.837 9.23175 13.9092C9.23175 11.171 11.3963 8.94383 14.1071 8.83154C14.0279 8.50114 13.9819 8.15778 13.9819 7.80291C13.9819 5.95872 15.1163 4.38518 16.7237 3.72726C16.6172 3.37814 16.4818 3.02614 16.304 2.67415C15.4172 0.917055 13.8566 -0.186438 12.4321 0.0453463C11.2581 0.2361 10.4367 1.19419 10.0833 2.48268C9.09858 1.81972 8.00588 1.56202 7.019 1.9097C4.90343 2.65472 4.23615 5.6967 5.44762 8.5141C5.45122 8.52274 5.45626 8.52993 5.45986 8.53857C3.16649 9.63415 2.5568 12.8914 4.01085 15.8297C4.2232 16.258 4.4701 16.6517 4.73931 17.0152C2.20625 18.0626 1.53753 21.2428 3.13266 24.022C3.6423 24.9103 4.32325 25.6416 5.08051 26.1937C4.72204 27.0511 4.79978 28.1056 5.36988 29.0788C6.13506 30.386 7.57111 31.162 8.91574 31.1526C11.2789 35.7933 14.1784 37.5936 18.5686 39.4565C18.6147 39.476 18.6607 39.4954 18.7068 39.5141C18.4909 39.3773 18.2857 39.2204 18.1065 39.0189Z" fill="#72B766"/>
<path d="M19.8276 17.5774C19.8693 17.4853 19.8888 17.3888 19.8902 17.2938C20.4063 15.9952 21.0275 14.9054 21.6739 13.9963C24.9016 13.3254 27.3368 14.3339 27.3908 14.3569C27.4851 14.3987 27.583 14.4174 27.678 14.4174C27.9551 14.4174 28.2193 14.2561 28.3381 13.9869C28.4979 13.6227 28.3316 13.198 27.9681 13.0382C27.868 12.995 25.882 12.1471 23.0265 12.3551C24.4215 10.9003 25.6459 10.2402 25.8288 10.1481C26.8747 9.6471 28.4029 10.2949 28.9046 10.5872C29.019 10.6549 29.1443 10.6865 29.2688 10.6865C29.515 10.6865 29.7554 10.5598 29.8893 10.3324C30.0908 9.98974 29.9778 9.54921 29.6345 9.34693C29.5524 9.29799 27.9343 8.36293 26.2765 8.55081C26.4183 7.96703 26.7329 7.4358 26.8934 7.22273C27.1345 6.90744 27.0741 6.45611 26.7581 6.21497C26.4435 5.97383 25.9907 6.03286 25.7496 6.34958C25.7042 6.40789 24.7598 7.66038 24.762 9.10219C23.7146 9.74356 21.0088 11.6878 19.1157 15.595C19.0135 15.8052 18.9148 16.0312 18.8169 16.258C16.8533 14.9155 17.1765 12.5271 17.1945 12.4112C17.2556 12.0196 16.9886 11.6518 16.5963 11.5892C16.2047 11.5266 15.8347 11.7943 15.7721 12.1866C15.5633 13.4931 15.8628 16.1853 18.2879 17.6314C17.7523 19.2064 17.3463 21.0866 17.2211 23.3058C17.2067 23.3756 17.2038 23.4433 17.2096 23.5124C17.1347 25.0679 17.2067 26.7934 17.4572 28.6829C16.5444 28.1805 16.1269 27.4455 16.1003 27.3958C15.9124 27.0467 15.4791 26.9136 15.1293 27.0978C14.778 27.2828 14.6419 27.7183 14.8277 28.0703C14.8658 28.143 15.7274 29.736 17.7192 30.3514C18.2382 33.1991 19.1632 36.3965 20.659 39.9849C21.1521 39.9525 21.6322 39.8222 22.0569 39.6106C22.0547 39.6048 22.0554 39.5983 22.0533 39.5919C20.4833 35.8567 19.536 32.5664 19.0322 29.659C19.0293 29.6417 19.0278 29.6251 19.0242 29.6086C18.6499 27.4275 18.5283 25.4674 18.5988 23.7118C19.6066 21.9936 22.5687 21.9245 22.5989 21.9237C22.9962 21.9173 23.3137 21.5912 23.3079 21.1938C23.3022 20.7994 22.9818 20.4841 22.5888 20.4841C22.5859 20.4841 22.5831 20.4841 22.5802 20.4841C22.4629 20.4855 20.4106 20.5301 18.7824 21.5509C18.9811 20.1256 19.3115 18.863 19.721 17.7415C19.7635 17.6919 19.8002 17.6379 19.8276 17.5774Z" fill="#72B766"/>
</g>
<defs>
<clipPath id="clip0_1_4844">
<rect width="40" height="40" fill="white"/>
</clipPath>
</defs>
</svg>
