<svg width="24" height="24" viewBox="0 0 24 24" fill="none" xmlns="http://www.w3.org/2000/svg">
<path fill-rule="evenodd" clip-rule="evenodd" d="M21.8026 13.8434C22.2199 14.0651 22.5418 14.4151 22.7683 14.7651C23.2095 15.4884 23.1737 16.3751 22.7445 17.1568L21.9099 18.5568C21.4687 19.3034 20.6461 19.7701 19.7995 19.7701C19.3822 19.7701 18.9172 19.6534 18.5357 19.4201C18.2257 19.2218 17.868 19.1518 17.4865 19.1518C16.3061 19.1518 15.3166 20.1201 15.2808 21.2751C15.2808 22.6168 14.1839 23.6668 12.8128 23.6668H11.1912C9.8082 23.6668 8.7113 22.6168 8.7113 21.2751C8.68745 20.1201 7.69786 19.1518 6.5175 19.1518C6.12404 19.1518 5.76636 19.2218 5.46829 19.4201C5.08676 19.6534 4.60984 19.7701 4.20447 19.7701C3.34602 19.7701 2.52335 19.3034 2.0822 18.5568L1.25953 17.1568C0.818382 16.3984 0.794536 15.4884 1.23568 14.7651C1.42645 14.4151 1.78413 14.0651 2.18951 13.8434C2.52335 13.6801 2.73796 13.4118 2.94065 13.0968C3.53679 12.0934 3.1791 10.7751 2.16566 10.1801C0.985302 9.51511 0.603771 8.03345 1.28337 6.87845L2.0822 5.50178C2.77373 4.34678 4.25216 3.93845 5.44444 4.61512C6.48173 5.17512 7.82901 4.80178 8.43707 3.81012C8.62784 3.48345 8.73515 3.13345 8.7113 2.78345C8.68745 2.32845 8.8186 1.89678 9.04514 1.54678C9.48628 0.82345 10.2851 0.356784 11.1555 0.33345H12.8366C13.7189 0.33345 14.5177 0.82345 14.9589 1.54678C15.1735 1.89678 15.3166 2.32845 15.2808 2.78345C15.2569 3.13345 15.3642 3.48345 15.555 3.81012C16.1631 4.80178 17.5104 5.17512 18.5596 4.61512C19.7399 3.93845 21.2303 4.34678 21.9099 5.50178L22.7087 6.87845C23.4002 8.03345 23.0187 9.51511 21.8264 10.1801C20.813 10.7751 20.4553 12.0934 21.0634 13.0968C21.2541 13.4118 21.4687 13.6801 21.8026 13.8434ZM8.62788 12.0118C8.62788 13.8434 10.1421 15.3018 12.014 15.3018C13.8859 15.3018 15.3643 13.8434 15.3643 12.0118C15.3643 10.1801 13.8859 8.71012 12.014 8.71012C10.1421 8.71012 8.62788 10.1801 8.62788 12.0118Z" fill="#FF9385"/>
</svg>
