<svg width="20" height="24" viewBox="0 0 20 24" fill="none" xmlns="http://www.w3.org/2000/svg">
<path fill-rule="evenodd" clip-rule="evenodd" d="M6.41326 17.1217H12.6971C13.1707 17.1217 13.5634 16.725 13.5634 16.2467C13.5634 15.7683 13.1707 15.3833 12.6971 15.3833H6.41326C5.93967 15.3833 5.54693 15.7683 5.54693 16.2467C5.54693 16.725 5.93967 17.1217 6.41326 17.1217ZM10.3176 9.54999H6.41326C5.93967 9.54999 5.54693 9.94666 5.54693 10.425C5.54693 10.9033 5.93967 11.2883 6.41326 11.2883H10.3176C10.7912 11.2883 11.1839 10.9033 11.1839 10.425C11.1839 9.94666 10.7912 9.54999 10.3176 9.54999ZM18.561 8.52987C18.8325 8.52674 19.1282 8.52333 19.3968 8.52333C19.6856 8.52333 19.9166 8.75666 19.9166 9.04833V18.4283C19.9166 21.3217 17.5948 23.6667 14.7301 23.6667H5.5354C2.5321 23.6667 0.083252 21.205 0.083252 18.1717V5.595C0.083252 2.70166 2.41658 0.333328 5.29282 0.333328H11.4611C11.7615 0.333328 11.9925 0.578328 11.9925 0.869995V4.62666C11.9925 6.76166 13.7367 8.51166 15.8506 8.52333C16.3443 8.52333 16.7796 8.52702 17.1606 8.53025C17.4569 8.53276 17.7204 8.535 17.9529 8.535C18.1173 8.535 18.3305 8.53254 18.561 8.52987ZM18.8796 6.82699C17.9301 6.83049 16.8108 6.82699 16.0056 6.81883C14.7281 6.81883 13.6758 5.75599 13.6758 4.46566V1.39033C13.6758 0.887493 14.2799 0.637826 14.6253 1.00066C15.2504 1.6571 16.1093 2.5594 16.9644 3.45761C17.8174 4.35372 18.6666 5.24575 19.2758 5.88549C19.6131 6.23899 19.3659 6.82583 18.8796 6.82699Z" fill="#FF9385"/>
</svg>
