<svg width="40" height="40" viewBox="0 0 40 40" fill="none" xmlns="http://www.w3.org/2000/svg">
<g clip-path="url(#clip0_1_4833)">
<path d="M38.8049 22.5033C38.8049 32.1664 30.3979 40 20.0275 40C9.65698 40 1.25 32.1664 1.25 22.5033C1.25 17.8616 3.1897 13.6426 6.35468 10.5108C8.30933 8.57663 11.0767 7.69223 13.79 8.14115C15.6805 8.45395 17.7954 8.62882 20.0275 8.62882C22.2595 8.62882 24.3744 8.45395 26.265 8.14115C28.9783 7.69223 31.7456 8.57663 33.7003 10.5108C36.8655 13.6426 38.8049 17.8616 38.8049 22.5033Z" fill="#FF8473"/>
<path d="M21.9189 39.9124C21.2967 39.9701 20.6656 40 20.0275 40C9.65729 40 1.25 32.1665 1.25 22.5031C1.25 17.8617 3.1897 13.6426 6.35498 10.5112C8.30902 8.57699 11.077 7.6926 13.79 8.1409C13.9709 8.17081 14.1547 8.19949 14.3396 8.22696C12.771 8.57059 11.3086 9.35214 10.1376 10.5112C6.97235 13.6426 5.03265 17.8617 5.03265 22.5031C5.03265 31.5717 12.4362 39.0287 21.9189 39.9124Z" fill="#FF8473"/>
<path d="M8.62101 15.6351C8.50077 15.6351 8.37931 15.5991 8.27372 15.5246C8.00119 15.3324 7.93619 14.9558 8.12845 14.6833C10.3218 11.5744 13.4245 10.5835 15.0788 10.2695C15.4063 10.2076 15.7221 10.4227 15.7844 10.7502C15.8463 11.0776 15.6312 11.3935 15.3037 11.4557C13.8288 11.7356 11.0633 12.6175 9.11478 15.3794C8.99729 15.546 8.81052 15.6351 8.62101 15.6351Z" fill="#FF8473"/>
<path d="M30.6345 15.7101C30.445 15.7101 30.2585 15.621 30.141 15.4544C27.3361 11.4789 22.8467 11.3916 22.8018 11.3913C22.4686 11.3882 22.2007 11.1154 22.204 10.7822C22.2068 10.4507 22.4765 10.184 22.8073 10.184H22.8131C23.0222 10.1862 27.9697 10.2829 31.1273 14.7583C31.3196 15.0308 31.2546 15.4074 30.9821 15.5997C30.8765 15.6741 30.755 15.7101 30.6345 15.7101Z" fill="#FF8473"/>
<path d="M22.3743 15.4529C22.0673 15.4529 21.8045 15.2195 21.7743 14.9076C21.6477 13.6054 21.2042 12.7106 20.8542 12.1894C20.5026 11.6657 20.1822 11.4176 20.1791 11.4152C19.9109 11.2177 19.8535 10.8396 20.0513 10.5714C20.249 10.3031 20.6271 10.2457 20.8954 10.4435C20.9683 10.4972 22.6846 11.7942 22.9758 14.7907C23.0078 15.1227 22.7652 15.4178 22.4332 15.4499C22.4133 15.4517 22.3938 15.4529 22.3743 15.4529Z" fill="#FF8473"/>
<path d="M28.7198 10.9293C28.7198 9.83551 24.8282 8.94897 20.0275 8.94897C15.2271 8.94897 11.3354 9.83551 11.3354 10.9293C11.3354 12.023 15.2271 12.9095 20.0275 12.9095C24.8282 12.9095 28.7198 12.023 28.7198 10.9293Z" fill="#FF8473"/>
<path d="M13.7562 9.88037C15.9437 11.279 24.1117 11.279 26.2992 9.88037C29.0965 8.09143 30.8286 5.80353 30.1679 4.7702C29.5072 3.73718 26.7036 4.34967 23.906 6.13861C23.6906 6.27655 23.4812 6.41754 23.2789 6.56036C22.8443 6.86798 22.248 6.55884 22.2483 6.02661C22.2483 6.02173 22.2483 6.01715 22.2483 6.01227C22.2483 2.69165 21.2541 0 20.0275 0C18.801 0 17.8068 2.69165 17.8068 6.01196V6.02661C17.8074 6.55884 17.2111 6.86768 16.7762 6.56036C16.5742 6.41724 16.3648 6.27655 16.1491 6.13861C13.3515 4.34967 10.5482 3.73718 9.88747 4.7702C9.22646 5.80353 10.9586 8.09113 13.7562 9.88037Z" fill="#91C788"/>
<path d="M26.2988 9.88007C24.1113 11.279 15.9439 11.279 13.7564 9.88007C10.9588 8.09082 9.22665 5.80353 9.88736 4.7702C9.92276 4.71558 9.96396 4.66492 10.0106 4.62067C10.5603 5.72479 11.9317 7.10358 13.7564 8.27057C15.9439 9.66919 24.1113 9.66919 26.2988 8.27057C28.1231 7.10358 29.4946 5.72479 30.0445 4.62067C30.0909 4.66492 30.1321 4.71558 30.1675 4.7702C30.8282 5.80353 29.0963 8.09082 26.2988 9.88007Z" fill="#91C788"/>
<path d="M32.7965 21.8594C32.4733 21.8594 32.2057 21.6034 32.1938 21.2777C32.1349 19.6618 31.679 18.7628 31.6747 18.7542C31.5181 18.4598 31.6298 18.0945 31.924 17.9379C32.2185 17.7813 32.5838 17.893 32.7404 18.1872C32.7645 18.2327 33.3306 19.317 33.4002 21.2338C33.4124 21.5671 33.1521 21.8469 32.8188 21.8591C32.8115 21.8594 32.8038 21.8594 32.7965 21.8594Z" fill="#FF8473"/>
</g>
<defs>
<clipPath id="clip0_1_4833">
<rect width="40" height="40" fill="white"/>
</clipPath>
</defs>
</svg>
